<?xml version="1.0" encoding="UTF-8"?>
<svg xmlns="http://www.w3.org/2000/svg" version="1.1" viewBox="0 0 755.3 1236.3">
  <defs>
    <style>
      .cls-1 {
        fill: #2b3a44;
      }

      .cls-2 {
        fill: #144179;
      }
    </style>
  </defs>
  <!-- Generator: Adobe Illustrator 28.7.1, SVG Export Plug-In . SVG Version: 1.2.0 Build 142)  -->
  <g>
    <g id="Ebene_1">
      <g>
        <polygon class="cls-2" points="749.8 1048.8 721.4 1048.8 721.4 884 713.7 900.7 644.1 1048.8 618.7 1048.8 549.4 903.7 541.7 886.7 541.7 1048.8 513.3 1048.8 513.3 853.6 553.6 853.6 627.8 1008.7 631.4 1016.3 635.1 1008.7 710 853.6 749.8 853.6 749.8 1048.8 749.8 1048.8"/>
        <polygon class="cls-2" points="170.3 853.6 170.3 945.3 32.5 945.3 28.4 945.3 28.4 941.2 28.4 853.6 0 853.6 0 1048.8 28.4 1048.8 28.4 974 28.4 969.9 32.5 969.9 170.3 969.9 170.3 1048.8 198.7 1048.8 198.7 853.6 170.3 853.6"/>
        <path class="cls-2" d="M461.8,1048h-33.4l-42.5-75.6-1.2-2.1h-64.4v-24.7h68c27.3,0,41.2-12,41.2-35.7s-13-31.9-35.6-31.9h-98.8v170h-30.3v-194.7h125.7c31.7,0,69.5,9.7,69.5,56s-13.8,48.3-38.8,56.7l-4.7,1.6,2.4,4.3,39.6,70.4,3.4,5.7h0Z"/>
      </g>
      <g>
        <path class="cls-1" d="M141.8,1099.8v136.5h-13.8v-109.2l-53.6,91.9h-6.8l-53.6-91.3v108.6H0v-136.5h11.9l59.3,101.2,58.7-101.2h11.9Z"/>
        <path class="cls-1" d="M308.1,1223.8v12.5h-96.5v-136.5h93.6v12.5h-79.2v48.6h70.6v12.3h-70.6v50.7h82.1Z"/>
        <path class="cls-1" d="M367.4,1099.8h55.6c43.7,0,73.1,28.1,73.1,68.3s-29.4,68.3-73.1,68.3h-55.6v-136.5ZM422.2,1223.8c36.3,0,59.7-23,59.7-55.8s-23.4-55.8-59.7-55.8h-40.4v111.5h40.4Z"/>
        <path class="cls-1" d="M553.8,1099.8h14.4v136.5h-14.4v-136.5Z"/>
        <path class="cls-1" d="M723.7,1199.8h-76.1l-16.4,36.5h-15l62.4-136.5h14.2l62.4,136.5h-15.2l-16.4-36.5ZM718.4,1188.1l-32.8-73.3-32.8,73.3h65.5Z"/>
      </g>
      <path class="cls-2" d="M0,0v750h750V0H0ZM78.6,128.1c34.6-37.6,73.6-70.6,115.9-98l.7-.5h59.9l-10.3,5.7c-54.2,29.9-102.7,67.9-144.3,113.1-2.8,3.1-6.9,4.9-11.1,4.9s-7.4-1.4-10.2-4c-6.1-5.6-6.5-15.1-.9-21.2ZM80.2,720.4l-.9-.9c-20.4-20.9-37-44.7-49.4-70.6l-.3-.6v-86.9l6-.3c6.9,60.2,36.4,114.9,83.2,154l6.4,5.3h-45ZM459.4,720.4h-45l6.4-5.3c53.9-45,84.7-111,84.7-180.9s6.7-15,15-15,15,6.7,15,15c0,69.6-26.7,135.4-75.2,185.3l-.9.9ZM720.4,408.9l-5.5-8c-44.1-64.2-116.8-102.5-194.3-102.5-130,0-235.7,105.8-235.7,235.7s-6.7,15-15,15-15-6.7-15-15c0-71,27.6-137.8,77.8-188,50.2-50.2,116.9-77.8,188-77.8s137.8,27.6,188,77.8c3.5,3.5,7,7.2,11.1,11.9l.8.9v50ZM720.4,284.8l-4.9-3.8c-55.9-43.3-123.4-66.1-195-66.1-176.1,0-319.3,143.2-319.3,319.3v.2c0,37.7,30.8,68.4,68.6,68.4s68.6-30.8,68.6-68.6v-.2c.1-100.4,81.8-182,182.2-182s182.2,81.7,182.2,182.2-10.6,110.7-31.4,162.2c-2.3,5.7-7.8,9.4-13.9,9.4s-3.8-.4-5.6-1.1c-3.7-1.5-6.6-4.4-8.2-8.1-1.6-3.7-1.6-7.8,0-11.5,19.4-47.9,29.2-98.7,29.2-151,0-83.9-68.3-152.2-152.2-152.2s-152.2,68.3-152.2,152.2v.2c-.1,54.3-44.3,98.4-98.6,98.4s-98.6-44.2-98.6-98.6,0-.2,0-.3c0-93.2,36.4-180.9,102.3-246.7,65.9-65.9,153.7-102.3,247.1-102.3s108.1,12.5,157,37.1c14.2,7.2,28.2,15.5,41.5,24.7l1.3.9v37.2ZM720.4,184.2l-4.5-2.5c-59.7-33-127.3-50.5-195.4-50.5-222.2,0-402.9,180.7-402.9,402.9s68.3,152.2,152.2,152.2,152.2-68.3,152.2-152.2v-.2c0-54.3,44.3-98.4,98.6-98.4s98.6,44.2,98.6,98.6,0,.2,0,.3c0,65.3-18.4,129.1-52.9,184.4l-.9,1.4h-36.1l3.3-4.7c37-53.6,56.6-116.3,56.6-181.5v-.2c-.1-37.7-30.9-68.3-68.6-68.3s-68.6,30.8-68.6,68.6v.2c-.1,100.4-81.8,182-182.2,182s-182.2-81.7-182.2-182.2,45-224.5,126.7-306.2c81.7-81.7,190.5-126.7,306.2-126.7s137.1,16.6,198.2,48l1.6.8v34.1ZM720.4,90.5l-4.2-1.9c-62-27.2-127.8-40.9-195.6-40.9-171.7,0-332.4,91.9-419.5,239.8-2.7,4.6-7.6,7.4-12.9,7.4s-5.3-.7-7.6-2.1c-3.5-2-5.9-5.3-6.9-9.2-1-3.9-.4-7.9,1.6-11.4,44.8-76.1,108.8-139.9,185.1-184.4,46.3-27,96.6-46.6,149.6-58.1h.3c0,0,220.8,0,220.8,0h.3c29.8,6.6,59.1,15.8,87.2,27.4l1.9.8v32.7Z"/>
    </g>
  </g>
</svg>